#usda 1.0
(
    upAxis = "Z"
    doc = "Digital Twin Finland - Topographic Database"
)
def Xform "World"
{
    def Xform "TerrainDB"
    {
    def Xform "Parks"
    {
        color3f[] primvars:displayColor = [(0.300,0.700,0.300)]
        {
            def Mesh "parks_0"
            {
                point3f[] points = [(-105.7934,-1096.6792,0.1000), (-97.2743,-1096.4542,0.1000), (-71.1124,-1096.0408,0.1000), (-47.0390,-1097.1020,0.1000), (-14.1997,-1098.1256,0.1000), (-8.8040,-1098.2843,0.1000), (-3.1336,-1098.3534,0.1000), (1.9980,-1098.6025,0.1000), (7.6452,-1098.8264,0.1000), (13.4008,-1098.9024,0.1000), (24.2781,-1098.6226,0.1000), (30.1003,-1098.5362,0.1000), (70.5718,-1100.5705,0.1000), (82.8353,-1140.0042,0.1000), (70.4827,-1139.7393,0.1000), (-30.0304,-1137.8390,0.1000), (-102.5504,-1149.8563,0.1000), (-102.6574,-1148.6059,0.1000), (-102.9781,-1143.4675,0.1000), (-103.2495,-1137.9863,0.1000), (-103.7709,-1126.8913,0.1000), (-104.3245,-1115.9951,0.1000), (-104.8471,-1110.7732,0.1000), (-105.4548,-1105.6785,0.1000), (-37.7461,-1113.8307,0.1000)]
                int[] faceVertexCounts = [3, 3, 3, 3, 3, 3, 3, 3, 3, 3, 3, 3, 3, 3, 3, 3, 3, 3, 3, 3, 3, 3, 3, 3]
                int[] faceVertexIndices = [0, 1, 24, 1, 2, 24, 2, 3, 24, 3, 4, 24, 4, 5, 24, 5, 6, 24, 6, 7, 24, 7, 8, 24, 8, 9, 24, 9, 10, 24, 10, 11, 24, 11, 12, 24, 12, 13, 24, 13, 14, 24, 14, 15, 24, 15, 16, 24, 16, 17, 24, 17, 18, 24, 18, 19, 24, 19, 20, 24, 20, 21, 24, 21, 22, 24, 22, 23, 24, 23, 0, 24]
                uniform token subdivisionScheme = "none"
            }

            def Mesh "parks_1"
            {
                point3f[] points = [(560.3275,-97.9337,4.2610), (590.7384,-82.6134,4.2610), (623.6928,-68.9645,4.2610), (627.2328,-70.0906,4.2610), (645.1192,-103.2997,4.2610), (657.8623,-126.9969,4.2610), (666.3964,-146.0125,4.2610), (668.7880,-161.0398,4.2610), (663.8695,-186.4150,4.2610), (656.8808,-206.9127,4.2610), (613.1009,-214.2922,4.2610), (611.5141,-207.0824,4.2610), (613.0843,-203.9433,4.2610), (618.6934,-196.1088,4.2610), (623.6362,-185.3454,4.2610), (623.7950,-172.5048,4.2610), (619.2476,-156.3630,4.2610), (608.8726,-142.3103,4.2610), (592.8130,-135.0455,4.2610), (580.4137,-134.7447,4.2610), (562.5568,-135.9253,4.2610), (620.4112,-149.2354,4.2610)]
                int[] faceVertexCounts = [3, 3, 3, 3, 3, 3, 3, 3, 3, 3, 3, 3, 3, 3, 3, 3, 3, 3, 3, 3, 3]
                int[] faceVertexIndices = [0, 1, 21, 1, 2, 21, 2, 3, 21, 3, 4, 21, 4, 5, 21, 5, 6, 21, 6, 7, 21, 7, 8, 21, 8, 9, 21, 9, 10, 21, 10, 11, 21, 11, 12, 21, 12, 13, 21, 13, 14, 21, 14, 15, 21, 15, 16, 21, 16, 17, 21, 17, 18, 21, 18, 19, 21, 19, 20, 21, 20, 0, 21]
                uniform token subdivisionScheme = "none"
            }

            def Mesh "parks_2"
            {
                point3f[] points = [(430.6472,-195.4764,4.5690), (463.6898,-163.6913,4.5690), (496.5072,-135.2660,4.5690), (509.1609,-124.9157,4.5690), (520.4736,-140.7228,4.5690), (501.8977,-144.8316,4.5690), (491.9541,-150.1217,4.5690), (483.5797,-156.1767,4.5690), (477.3021,-166.7757,4.5690), (474.1532,-175.6597,4.5690), (472.9486,-188.0687,4.5690), (476.2313,-199.4210,4.5690), (481.8971,-210.9331,4.5690), (489.3676,-217.7365,4.5690), (494.0725,-221.2504,4.5690), (495.7150,-224.0125,4.5690), (497.0950,-228.8229,4.5690), (492.1389,-229.3941,4.5690), (460.9074,-230.4177,4.5690), (484.7231,-184.4050,4.5690)]
                int[] faceVertexCounts = [3, 3, 3, 3, 3, 3, 3, 3, 3, 3, 3, 3, 3, 3, 3, 3, 3, 3, 3]
                int[] faceVertexIndices = [0, 1, 19, 1, 2, 19, 2, 3, 19, 3, 4, 19, 4, 5, 19, 5, 6, 19, 6, 7, 19, 7, 8, 19, 8, 9, 19, 9, 10, 19, 10, 11, 19, 11, 12, 19, 12, 13, 19, 13, 14, 19, 14, 15, 19, 15, 16, 19, 16, 17, 19, 17, 18, 19, 18, 0, 19]
                uniform token subdivisionScheme = "none"
            }

            def Mesh "parks_3"
            {
                point3f[] points = [(1939.7920,-154.9869,3.9990), (1944.7622,-143.5642,3.9990), (1945.5131,-83.9019,3.9990), (1956.6866,-82.9468,3.9990), (1962.2676,-74.2245,3.9990), (2009.7478,-86.6358,3.9990), (2012.6143,-77.0904,3.9990), (2014.8483,-72.9304,3.9990), (2018.8360,-70.4333,3.9990), (2025.8204,-71.4219,3.9990), (2039.3428,-75.2871,3.9990), (1971.7437,-273.2303,3.9990), (1961.7915,-269.1832,3.9990), (1970.4784,-243.9099,3.9990), (1960.8885,-240.8093,3.9990), (1969.4277,-214.5174,3.9990), (1958.4391,-210.8565,3.9990), (1967.3179,-184.2005,3.9990), (1958.5358,-181.0308,3.9990), (1965.5907,-160.8722,3.9990), (1956.0222,-156.1177,3.9990), (1944.2612,-154.5422,3.9990), (1975.2149,-149.2133,3.9990)]
                int[] faceVertexCounts = [3, 3, 3, 3, 3, 3, 3, 3, 3, 3, 3, 3, 3, 3, 3, 3, 3, 3, 3, 3, 3, 3]
                int[] faceVertexIndices = [0, 1, 22, 1, 2, 22, 2, 3, 22, 3, 4, 22, 4, 5, 22, 5, 6, 22, 6, 7, 22, 7, 8, 22, 8, 9, 22, 9, 10, 22, 10, 11, 22, 11, 12, 22, 12, 13, 22, 13, 14, 22, 14, 15, 22, 15, 16, 22, 16, 17, 22, 17, 18, 22, 18, 19, 22, 19, 20, 22, 20, 21, 22, 21, 0, 22]
                uniform token subdivisionScheme = "none"
            }

            def Mesh "parks_4"
            {
                point3f[] points = [(2020.9005,-423.5895,0.1000), (2021.2168,-412.7085,0.1000), (2023.3537,-401.2026,0.1000), (2025.8250,-392.8446,0.1000), (2029.0730,-386.1936,0.1000), (2032.6855,-380.9255,0.1000), (2035.9593,-376.9389,0.1000), (2044.8893,-374.2364,0.1000), (2055.1088,-376.1011,0.1000), (2069.7744,-377.8098,0.1000), (2088.2906,-381.6413,0.1000), (2104.2424,-384.0465,0.1000), (2119.3040,-385.7534,0.1000), (2149.9368,-389.6780,0.1000), (2162.9187,-391.5749,0.1000), (2172.2743,-392.0832,0.1000), (2188.1338,-392.9146,0.1000), (2195.1332,-393.7921,0.1000), (2202.4028,-395.4968,0.1000), (2214.3173,-398.4933,0.1000), (2221.3404,-399.6747,0.1000), (2227.5740,-400.1661,0.1000), (2232.6805,-400.4435,0.1000), (2244.4906,-400.5566,0.1000), (2252.4554,-401.3329,0.1000), (2260.1384,-402.4220,0.1000), (2272.6490,-404.5267,0.1000), (2293.1617,-409.2674,0.1000), (2296.1349,-416.0397,0.1000), (2299.4501,-423.6113,0.1000), (2302.1179,-425.3477,0.1000), (2301.1911,-429.7474,0.1000), (2372.0234,-451.8876,0.1000), (2373.5288,-447.1430,0.1000), (2387.5534,-450.9688,0.1000), (2388.2482,-444.4698,0.1000), (2415.9541,-448.8161,0.1000), (2529.3036,-481.5258,0.1000), (2521.6700,-504.7931,0.1000), (2520.6284,-507.9643,0.1000), (2481.9274,-496.1001,0.1000), (2417.8272,-528.3987,0.1000), (2396.0020,-594.7072,0.1000), (2296.3429,-561.2399,0.1000), (2311.4780,-512.4022,0.1000), (2266.8705,-496.0549,0.1000), (2219.4451,-481.7618,0.1000), (2205.9256,-478.5018,0.1000), (2183.4544,-473.5692,0.1000), (2173.0023,-471.0709,0.1000), (2172.5988,-472.5596,0.1000), (2171.2087,-477.7274,0.1000), (2152.2185,-470.6814,0.1000), (2037.9697,-428.3224,0.1000), (2021.7618,-429.4198,0.1000), (2221.3830,-433.2954,0.1000)]
                int[] faceVertexCounts = [3, 3, 3, 3, 3, 3, 3, 3, 3, 3, 3, 3, 3, 3, 3, 3, 3, 3, 3, 3, 3, 3, 3, 3, 3, 3, 3, 3, 3, 3, 3, 3, 3, 3, 3, 3, 3, 3, 3, 3, 3, 3, 3, 3, 3, 3, 3, 3, 3, 3, 3, 3, 3, 3, 3]
                int[] faceVertexIndices = [0, 1, 55, 1, 2, 55, 2, 3, 55, 3, 4, 55, 4, 5, 55, 5, 6, 55, 6, 7, 55, 7, 8, 55, 8, 9, 55, 9, 10, 55, 10, 11, 55, 11, 12, 55, 12, 13, 55, 13, 14, 55, 14, 15, 55, 15, 16, 55, 16, 17, 55, 17, 18, 55, 18, 19, 55, 19, 20, 55, 20, 21, 55, 21, 22, 55, 22, 23, 55, 23, 24, 55, 24, 25, 55, 25, 26, 55, 26, 27, 55, 27, 28, 55, 28, 29, 55, 29, 30, 55, 30, 31, 55, 31, 32, 55, 32, 33, 55, 33, 34, 55, 34, 35, 55, 35, 36, 55, 36, 37, 55, 37, 38, 55, 38, 39, 55, 39, 40, 55, 40, 41, 55, 41, 42, 55, 42, 43, 55, 43, 44, 55, 44, 45, 55, 45, 46, 55, 46, 47, 55, 47, 48, 55, 48, 49, 55, 49, 50, 55, 50, 51, 55, 51, 52, 55, 52, 53, 55, 53, 54, 55, 54, 0, 55]
                uniform token subdivisionScheme = "none"
            }
        }
    }

    def Xform "Cemeteries"
    {
        color3f[] primvars:displayColor = [(0.600,0.600,0.500)]
        {
            def Mesh "cemeteries_0"
            {
                point3f[] points = [(1956.0428,-319.2136,0.1000), (1960.2239,-306.9665,0.1000), (1971.7437,-273.2303,0.1000), (2039.3428,-75.2871,0.1000), (2049.7625,-45.0974,0.1000), (2382.3689,-164.7374,0.1000), (2397.5778,-170.9071,0.1000), (2415.7750,-194.9466,0.1000), (2449.6343,-214.8897,0.1000), (2455.6586,-217.3773,0.1000), (2457.6476,-211.4076,0.1000), (2516.6993,-230.1689,0.1000), (2509.3029,-249.5626,0.1000), (2535.1841,-257.8216,0.1000), (2615.7002,-283.5223,0.1000), (2639.3028,-291.0601,0.1000), (2580.5538,-474.6903,0.1000), (2390.7720,-413.6096,0.1000), (2385.9818,-412.2617,0.1000), (2221.1417,-359.0869,0.1000), (2216.5652,-357.6105,0.1000), (2215.2566,-357.1246,0.1000), (2209.6033,-376.3675,0.1000), (2091.6421,-361.3068,0.1000), (2024.5654,-341.0407,0.1000), (2020.6407,-339.5719,0.1000), (2296.4881,-280.7256,0.1000)]
                int[] faceVertexCounts = [3, 3, 3, 3, 3, 3, 3, 3, 3, 3, 3, 3, 3, 3, 3, 3, 3, 3, 3, 3, 3, 3, 3, 3, 3, 3]
                int[] faceVertexIndices = [0, 1, 26, 1, 2, 26, 2, 3, 26, 3, 4, 26, 4, 5, 26, 5, 6, 26, 6, 7, 26, 7, 8, 26, 8, 9, 26, 9, 10, 26, 10, 11, 26, 11, 12, 26, 12, 13, 26, 13, 14, 26, 14, 15, 26, 15, 16, 26, 16, 17, 26, 17, 18, 26, 18, 19, 26, 19, 20, 26, 20, 21, 26, 21, 22, 26, 22, 23, 26, 23, 24, 26, 24, 25, 26, 25, 0, 26]
                uniform token subdivisionScheme = "none"
            }
        }
    }
    }
}
